# xmcd
#
# Track frame offsets:
#	150
#	21720
#	34654
#	50253
#	66265
#	82655
#	96310
#	114216
#	134019
#
# Disc length: 2009 seconds
#
# Revision: 0
# Processed by: cddbd v1.5.1PL2 Copyright (c) Steve Scherf et al.
# Submitted via: EasyCDDAExtractor 9.1.3.1
#
DISCID=7407d709
DTITLE=Alabama - Pass It On Down
DYEAR=1990
DGENRE=Country
TTITLE0=Pass It On Down
TTITLE1=Here We Are
TTITLE2=Down Home
TTITLE3=Forever's As Far As I'll Go
TTITLE4=Jukebox In My Mind
TTITLE5=Moonlight Lounge
TTITLE6=Goodbye (Kelly's Song)
TTITLE7=Fire On Fire
TTITLE8=Until It Happens
EXTD=
EXTT0=
EXTT1=
EXTT2=
EXTT3=
EXTT4=
EXTT5=
EXTT6=
EXTT7=
EXTT8=
PLAYORDER=
